<?xml version="1.0" standalone="no"?>
<!DOCTYPE svg PUBLIC "-//W3C//DTD SVG 20010904//EN"
 "http://www.w3.org/TR/2001/REC-SVG-20010904/DTD/svg10.dtd">
<svg version="1.0" xmlns="http://www.w3.org/2000/svg"
 width="372.000000pt" height="372.000000pt" viewBox="0 0 372.000000 372.000000"
 preserveAspectRatio="xMidYMid meet">

<g transform="translate(0.000000,372.000000) scale(0.100000,-0.100000)"
fill="#000000" stroke="none">
<path d="M2380 3481 c-60 -20 -139 -56 -195 -91 l-36 -22 -71 32 -71 33 -131
-6 c-194 -8 -341 -56 -510 -167 -222 -145 -359 -360 -432 -675 -21 -91 -25
-368 -7 -442 9 -34 8 -46 -5 -64 -22 -32 -42 -124 -42 -196 0 -91 16 -157 65
-259 34 -70 57 -103 100 -143 31 -28 60 -51 65 -51 33 0 14 -204 -41 -442 -43
-189 -33 -174 -136 -188 -48 -7 -114 -20 -146 -30 -66 -21 -171 -82 -237 -139
-74 -65 -37 -58 52 9 123 93 165 109 376 144 38 6 39 1 16 -70 -18 -52 -40
-84 -59 -84 -27 0 -142 -54 -168 -78 -31 -29 -63 -84 -68 -118 -3 -14 7 -30
29 -48 21 -19 32 -23 32 -14 0 8 7 37 15 64 13 46 22 56 94 107 43 31 81 57
85 57 4 0 0 -13 -9 -30 -8 -16 -15 -37 -15 -47 1 -37 39 31 69 122 42 126 107
390 127 515 9 58 17 106 19 108 1 2 16 -26 33 -62 36 -78 59 -109 169 -238
145 -168 264 -268 357 -298 l39 -12 -33 -26 c-56 -44 -74 -118 -46 -186 13
-32 13 -34 -15 -50 -60 -36 -78 -125 -36 -186 12 -19 42 -46 67 -60 28 -16 61
-50 88 -88 24 -34 50 -62 58 -62 18 0 9 18 -39 81 -45 60 -80 117 -93 154 -10
26 -13 27 -19 12 -4 -10 -3 -29 3 -43 13 -26 6 -30 -19 -11 -49 37 -53 121
-10 169 26 29 32 32 50 21 12 -7 23 -13 26 -13 12 0 3 26 -17 47 -33 35 -38
128 -8 166 26 33 62 53 112 62 31 6 39 4 50 -14 7 -12 18 -21 25 -21 16 0 16
0 -3 39 -25 51 -29 139 -7 180 29 56 65 76 135 76 51 -1 62 -4 78 -25 23 -31
34 -22 20 16 -13 34 -4 96 21 146 18 36 81 88 105 88 21 0 117 -55 179 -102
60 -45 130 -76 143 -63 4 4 -1 13 -11 20 -13 10 -15 14 -5 18 7 2 10 7 6 11
-3 4 -16 2 -28 -4 -19 -10 -29 -7 -70 21 -45 31 -49 36 -55 86 -8 63 -1 115
26 199 46 144 190 226 268 153 31 -29 26 -69 -19 -158 -28 -56 -40 -92 -40
-123 0 -39 40 -214 135 -593 37 -149 36 -145 53 -188 14 -33 15 -44 5 -50 -5
-2 -3 -3 4 -1 6 1 17 -11 23 -27 12 -29 24 -36 34 -21 3 4 -10 48 -29 98 -19
49 -71 239 -116 422 -74 297 -81 336 -69 355 56 89 82 138 106 205 15 42 42
111 60 152 38 87 64 182 64 234 0 25 11 51 35 85 53 73 111 205 140 317 35
133 45 390 21 536 -53 323 -218 593 -425 698 -136 68 -214 63 -388 -26 -59
-30 -108 -52 -110 -50 -2 2 11 16 29 31 61 52 216 113 323 128 17 2 3 4 -30 5
-33 0 -85 -7 -115 -17z m-308 -115 c78 -39 70 -40 -27 -5 -101 37 -261 21
-426 -41 -69 -25 -192 -99 -296 -177 -104 -78 -110 -81 -86 -47 96 134 322
261 523 294 41 6 82 13 90 15 8 2 45 2 82 1 53 -3 82 -11 140 -40z m491 -18
c91 -46 179 -159 230 -293 26 -68 26 -69 4 -42 -31 37 -40 34 -33 -10 6 -38 6
-38 -11 -16 -10 11 -34 47 -53 79 -19 32 -47 72 -63 90 -24 29 -25 32 -7 27
16 -4 19 -2 14 11 -9 23 -122 115 -171 139 -50 24 -54 34 -15 40 34 5 57 -1
105 -25z m-533 -26 c19 -7 1 -9 -71 -9 -106 0 -140 -9 -244 -61 -89 -44 -191
-121 -280 -211 -38 -39 -73 -71 -78 -71 -5 0 0 16 12 36 86 145 273 283 434
320 65 14 184 13 227 -4z m16 -119 c-3 -8 -6 -18 -6 -23 0 -5 -18 -19 -40 -31
-47 -27 -52 -43 -10 -34 17 4 30 4 30 0 0 -3 -16 -27 -35 -52 -41 -54 -46 -78
-12 -67 20 6 20 4 -7 -24 -35 -38 -46 -33 -46 18 0 21 -5 40 -12 42 -8 3 -5
15 10 40 12 19 22 45 22 56 0 11 5 24 10 27 16 10 12 25 -5 19 -23 -9 -18 9 7
25 49 31 105 33 94 4z m688 -327 c0 -45 -5 -80 -14 -96 l-14 -25 -7 25 c-4 14
-7 44 -8 67 -1 23 -6 54 -11 69 -12 30 -6 44 12 26 20 -20 30 -13 24 16 -6 24
-5 25 5 8 7 -11 12 -51 13 -90z m-74 -155 c-6 -23 -14 -41 -18 -41 -4 0 -12
20 -18 45 -7 31 -7 42 0 35 16 -16 23 -12 31 23 8 32 8 32 12 5 2 -14 -1 -45
-7 -67z m-340 2 c70 -18 77 -25 55 -60 -28 -42 -241 -325 -264 -350 l-21 -22
-67 20 c-88 26 -198 49 -229 49 -14 0 -24 4 -22 8 2 4 48 50 103 102 302 283
301 282 350 274 22 -4 65 -13 95 -21z m225 -253 c3 -5 -31 -64 -77 -129 -83
-120 -101 -135 -137 -112 -7 5 -12 13 -10 19 2 6 45 60 94 121 83 103 114 127
130 101z m-655 -150 c112 -24 614 -182 633 -200 12 -10 -241 -72 -265 -64 -19
6 -20 3 -13 -42 9 -62 19 -74 62 -74 l35 0 -17 -26 c-22 -35 -14 -40 15 -9 32
34 46 31 53 -11 3 -20 14 -45 23 -55 26 -29 13 -31 -49 -10 -32 11 -57 16 -57
12 0 -11 83 -47 168 -72 37 -11 73 -22 80 -24 6 -3 12 0 12 6 0 5 -13 15 -30
20 l-30 11 20 25 c11 14 22 40 26 59 3 19 10 34 14 34 15 0 59 -41 65 -60 7
-22 39 -27 51 -9 4 7 -1 16 -11 21 -12 7 -14 12 -6 18 18 11 -41 69 -78 76
-54 11 -35 27 27 22 39 -3 69 -11 89 -26 31 -22 63 -29 63 -14 0 13 -37 67
-66 96 l-29 28 40 -16 c21 -9 46 -23 55 -30 34 -29 40 -28 60 16 l20 43 -6
-48 c-3 -27 -19 -96 -35 -154 -16 -58 -38 -149 -48 -202 -11 -53 -24 -116 -31
-140 -11 -42 -12 -43 -32 -24 -26 23 -110 23 -154 0 -41 -21 -101 -84 -125
-129 -31 -60 -52 -166 -45 -230 l6 -57 -47 29 c-26 16 -61 32 -78 36 -76 14
-149 -56 -170 -164 l-11 -56 -55 3 c-40 1 -65 -4 -98 -21 -63 -33 -83 -74 -79
-167 l3 -73 -50 6 c-92 10 -186 67 -307 185 -207 199 -316 361 -338 501 -6 39
-6 68 0 74 5 5 11 -2 15 -20 30 -133 69 -243 82 -231 2 3 -7 40 -21 82 -40
118 -51 197 -50 360 0 127 4 167 27 264 23 98 77 241 90 241 3 0 1 -17 -4 -37
-14 -66 10 -57 31 12 26 80 59 144 84 160 14 10 63 31 108 47 79 28 89 29 203
24 66 -2 145 -10 175 -16z m-835 -228 c17 -10 44 -43 60 -73 l30 -54 5 -250
c3 -137 1 -253 -3 -256 -37 -27 -125 53 -180 162 -67 134 -85 270 -51 391 26
91 75 119 139 80z m1449 -171 c10 -16 -5 -41 -24 -41 -19 0 -34 25 -24 41 3 5
14 9 24 9 10 0 21 -4 24 -9z m356 -242 c-25 -85 -62 -163 -93 -203 l-24 -29
24 99 c13 54 26 109 29 121 3 16 9 20 20 16 13 -5 15 -2 9 16 -5 17 0 30 22
53 38 39 41 19 13 -73z m-111 -306 c-19 -50 -81 -163 -90 -163 -5 0 12 43 38
95 26 52 51 95 55 95 4 0 3 -12 -3 -27z"/>
<path d="M1581 2300 c-55 -20 -99 -47 -156 -94 -23 -20 -27 -28 -17 -38 9 -9
23 -8 65 5 77 24 104 21 191 -18 42 -20 76 -37 76 -38 0 -1 -24 -3 -52 -3 -84
-2 -138 -8 -138 -16 0 -5 -7 -8 -15 -8 -8 0 -12 -6 -9 -14 3 -8 -2 -16 -13
-19 -17 -4 -17 -4 0 -12 11 -4 36 1 68 15 28 12 52 20 53 18 1 -2 0 -29 -2
-62 l-4 -58 -36 5 c-57 10 -23 -13 44 -29 71 -16 228 -28 199 -15 -11 5 -32
10 -47 10 -33 1 -34 5 -8 38 11 14 20 38 20 54 0 15 4 30 9 33 15 10 59 -33
72 -69 7 -19 17 -35 21 -35 12 0 10 16 -7 57 -8 19 -15 37 -15 39 0 1 20 -6
45 -17 25 -11 65 -21 88 -22 39 -2 43 0 60 36 21 42 12 67 -25 67 -26 0 -81
29 -228 120 -69 43 -138 81 -155 84 -18 3 -51 -2 -84 -14z m154 -230 c8 -13
-13 -40 -31 -40 -14 0 -19 31 -7 43 10 10 31 8 38 -3z m55 -40 c0 -5 -5 -12
-11 -16 -12 -7 -31 15 -23 28 6 9 34 -1 34 -12z"/>
<path d="M1960 1964 c0 -8 5 -12 10 -9 6 3 10 10 10 16 0 5 -4 9 -10 9 -5 0
-10 -7 -10 -16z"/>
<path d="M2244 1906 l-29 -24 1 -134 c1 -107 5 -145 22 -193 26 -77 20 -87
-82 -138 -72 -37 -94 -57 -61 -57 22 0 126 54 152 79 32 30 36 59 18 110 -20
57 -39 220 -32 277 3 28 13 55 28 70 31 33 18 41 -17 10z"/>
<path d="M1910 1545 c-16 -19 -1 -19 24 0 16 12 17 15 4 15 -8 0 -21 -7 -28
-15z"/>
<path d="M1984 1445 c-21 -16 -16 -18 37 -15 22 1 41 -5 48 -14 17 -20 31 -21
31 -2 0 38 -79 59 -116 31z"/>
<path d="M2050 1300 c0 -5 5 -10 10 -10 6 0 10 5 10 10 0 6 -4 10 -10 10 -5 0
-10 -4 -10 -10z"/>
<path d="M1710 1285 c-7 -9 -11 -17 -9 -20 3 -2 52 -11 109 -20 111 -16 251
-55 312 -86 40 -20 58 -24 58 -11 0 27 -204 95 -344 114 -54 7 -90 17 -93 25
-7 17 -18 16 -33 -2z"/>
<path d="M2227 1193 c-4 -3 -7 -10 -7 -14 0 -11 29 -19 35 -10 6 11 -20 33
-28 24z"/>
<path d="M1840 1050 c0 -5 15 -10 33 -10 32 0 112 -19 151 -35 14 -6 18 -5 14
6 -10 31 -198 68 -198 39z"/>
<path d="M966 1974 c-9 -8 -16 -30 -15 -47 l1 -32 10 33 c14 41 27 40 58 -4
25 -38 29 -70 15 -156 -6 -38 -4 -55 14 -88 27 -52 27 -64 1 -50 -13 7 -20 7
-20 1 0 -14 38 -33 50 -26 15 9 12 31 -10 72 -21 40 -27 117 -10 128 24 15 2
110 -36 155 -29 34 -36 36 -58 14z"/>
<path d="M2552 1393 c-39 -15 -93 -164 -91 -248 1 -16 8 6 16 49 19 108 50
168 91 181 18 5 32 13 32 17 0 9 -27 9 -48 1z"/>
<path d="M1167 980 c-5 -25 -14 -83 -22 -130 -8 -47 -21 -105 -29 -128 -11
-30 -12 -42 -4 -40 26 9 72 219 66 301 l-3 42 -8 -45z"/>
<path d="M2178 764 c-3 -2 0 -30 6 -62 13 -64 35 -79 54 -37 15 32 16 95 2 95
-5 0 -10 -13 -10 -29 0 -17 -4 -32 -9 -35 -10 -7 -21 16 -21 44 0 19 -13 34
-22 24z"/>
<path d="M1250 706 c0 -4 11 -51 25 -105 33 -132 48 -268 44 -406 -4 -108 1
-137 15 -99 11 30 6 259 -9 355 -16 107 -49 237 -65 253 -5 5 -10 7 -10 2z"/>
<path d="M2620 670 c-7 -13 -21 -20 -40 -20 -21 0 -28 -4 -24 -14 3 -8 15 -16
27 -18 19 -3 22 -11 25 -50 2 -34 7 -48 18 -48 7 0 14 -9 14 -20 0 -16 7 -20
34 -20 19 0 36 -6 39 -12 6 -18 14 -8 21 28 l7 31 -51 -5 -50 -5 0 48 0 47 31
-7 c30 -7 30 -7 12 14 -9 12 -23 21 -30 21 -7 0 -13 10 -13 22 0 21 1 21 28
-5 31 -29 48 -34 55 -14 2 6 4 -10 4 -36 0 -27 5 -52 11 -55 6 -4 14 -20 17
-35 4 -15 10 -26 13 -23 3 3 -3 26 -12 51 -10 24 -14 50 -10 56 4 7 3 9 -4 5
-7 -4 -10 3 -9 21 2 20 -3 28 -16 28 -10 0 -21 5 -25 11 -4 6 -19 14 -34 18
-21 5 -30 2 -38 -14z"/>
<path d="M2511 584 c0 -11 3 -14 6 -6 3 7 2 16 -1 19 -3 4 -6 -2 -5 -13z"/>
<path d="M2540 528 c0 -23 3 -29 9 -19 8 12 4 51 -5 51 -2 0 -4 -15 -4 -32z"/>
<path d="M1980 516 c0 -1 5 -18 11 -36 9 -25 9 -34 -1 -40 -18 -11 -4 -42 17
-38 21 4 49 79 38 104 -8 18 -9 17 -12 -3 -5 -28 -19 -30 -26 -3 -4 16 -27 30
-27 16z"/>
<path d="M2742 470 c0 -19 2 -27 5 -17 2 9 2 25 0 35 -3 9 -5 1 -5 -18z"/>
<path d="M2502 427 l1 -69 -49 -25 c-27 -13 -71 -45 -97 -71 -52 -50 -122
-177 -115 -208 2 -13 16 7 41 58 40 83 118 172 176 203 48 24 140 31 198 14
l48 -14 -81 -6 c-81 -6 -176 -39 -216 -76 -28 -25 -21 -37 10 -17 78 51 126
68 202 68 50 0 91 -6 123 -18 45 -18 49 -18 65 -3 12 12 13 17 3 17 -7 0 -27
12 -44 26 -17 14 -24 25 -16 24 8 -1 23 -2 34 -1 18 2 18 3 -3 12 -15 5 -30 5
-41 0 -10 -6 -23 -6 -32 0 -12 8 -11 12 5 24 11 9 15 18 10 27 -5 7 -7 21 -6
31 3 14 -4 17 -37 17 -23 0 -41 -4 -41 -10 0 -5 -19 -9 -42 -9 l-43 2 35 7 35
7 -32 2 c-23 1 -34 7 -38 22 -6 17 -9 19 -16 8 -5 -8 -6 -21 -3 -31 2 -9 0
-19 -5 -23 -6 -3 -13 4 -15 17 -3 13 -7 32 -10 43 -2 11 -4 -11 -4 -48z m118
-27 c-19 -13 -30 -13 -30 0 0 6 10 10 23 10 18 0 19 -2 7 -10z m-76 -20 c-22
-9 -29 -6 -20 9 4 6 14 7 23 4 15 -6 14 -7 -3 -13z m89 -7 c-7 -2 -19 -2 -25
0 -7 3 -2 5 12 5 14 0 19 -2 13 -5z"/>
<path d="M2771 454 c0 -11 3 -14 6 -6 3 7 2 16 -1 19 -3 4 -6 -2 -5 -13z"/>
<path d="M2740 391 c0 -11 -4 -23 -10 -26 -5 -3 -10 -12 -10 -18 0 -8 3 -7 9
2 6 8 20 12 39 9 32 -5 32 0 3 34 -20 23 -31 23 -31 -1z"/>
<path d="M2790 308 c-12 -8 -12 -9 2 -5 9 3 19 1 22 -6 3 -9 5 -9 5 0 1 18
-13 23 -29 11z"/>
<path d="M1875 290 c-4 -6 -4 -24 0 -40 5 -25 4 -29 -9 -24 -20 8 -21 -10 -1
-26 22 -19 35 -3 35 45 0 43 -12 65 -25 45z"/>
</g>
</svg>
